<?xml version="1.0" ?><svg data-name="Layer 2" id="Layer_2" viewBox="0 0 64 64" xmlns="http://www.w3.org/2000/svg"><defs><style>.cls-1{fill:#5c3b51;}.cls-2{fill:#f74b50;}.cls-3{fill:#d13f44;}.cls-4{fill:#8bd94f;}.cls-5{fill:#45d4d9;}.cls-6{fill:#2d95b5;}.cls-7{fill:#2c2a3d;}</style></defs><title/><path class="cls-1" d="M19,51h6a0,0,0,0,1,0,0v7a3,3,0,0,1-3,3h0a3,3,0,0,1-3-3V51A0,0,0,0,1,19,51Z"/><path class="cls-1" d="M39,51h6a0,0,0,0,1,0,0v7a3,3,0,0,1-3,3h0a3,3,0,0,1-3-3V51A0,0,0,0,1,39,51Z"/><circle class="cls-2" cx="20" cy="12" r="9"/><path class="cls-3" d="M20,6a9,9,0,0,1,8.87,7.5A9.29,9.29,0,0,0,29,12a9,9,0,0,0-18,0,9.29,9.29,0,0,0,.13,1.5A9,9,0,0,1,20,6Z"/><circle class="cls-2" cx="44" cy="12" r="9"/><path class="cls-3" d="M44,6a9,9,0,0,1,8.87,7.5A9.29,9.29,0,0,0,53,12a9,9,0,0,0-18,0,9.29,9.29,0,0,0,.13,1.5A9,9,0,0,1,44,6Z"/><circle class="cls-4" cx="32" cy="32" r="24"/><circle class="cls-5" cx="32" cy="32" r="20"/><path class="cls-6" d="M32,15A20,20,0,0,1,51.92,33.5c0-.5.08-1,.08-1.5a20,20,0,0,0-40,0c0,.51,0,1,.08,1.5A20,20,0,0,1,32,15Z"/><path class="cls-7" d="M57,32a24.89,24.89,0,0,0-4.65-14.5A9.9,9.9,0,0,0,54,12,10,10,0,0,0,35.25,7.22a24.12,24.12,0,0,0-6.5,0A10,10,0,1,0,11.65,17.5,25,25,0,0,0,18,52.7V58a4,4,0,0,0,8,0V56.27a25,25,0,0,0,12,0V58a4,4,0,0,0,8,0V52.7A25,25,0,0,0,57,32ZM44,4a8,8,0,0,1,8,8,7.82,7.82,0,0,1-1,3.81A25.05,25.05,0,0,0,37.35,7.58,8,8,0,0,1,44,4ZM12,12A8,8,0,0,1,26.65,7.58,25.05,25.05,0,0,0,13,15.81,7.82,7.82,0,0,1,12,12ZM24,58a2,2,0,0,1-4,0V53.92a24.64,24.64,0,0,0,4,1.76Zm20,0a2,2,0,0,1-4,0V55.68a24.64,24.64,0,0,0,4-1.76ZM32,55A23,23,0,1,1,55,32,23,23,0,0,1,32,55Z"/><path class="cls-7" d="M32,11A21,21,0,1,0,53,32,21,21,0,0,0,32,11Zm0,40A19,19,0,1,1,51,32,19,19,0,0,1,32,51Z"/><path class="cls-7" d="M42,31H33V22a1,1,0,0,0-2,0V32a1,1,0,0,0,1,1H42a1,1,0,0,0,0-2Z"/><path class="cls-7" d="M32,17.74a1,1,0,0,0,1-1V15a1,1,0,0,0-2,0v1.74A1,1,0,0,0,32,17.74Z"/><path class="cls-7" d="M32,46.26a1,1,0,0,0-1,1V49a1,1,0,0,0,2,0V47.26A1,1,0,0,0,32,46.26Z"/><path class="cls-7" d="M24.37,16.78a1,1,0,0,0-1.74,1l.88,1.51a1,1,0,0,0,.86.5,1,1,0,0,0,.5-.14,1,1,0,0,0,.37-1.36Z"/><path class="cls-7" d="M40.49,44.71a1,1,0,0,0-1.73,1l.87,1.51a1,1,0,0,0,1.74-1Z"/><path class="cls-7" d="M19.29,23.51l-1.51-.88a1,1,0,0,0-1,1.74l1.51.87a1,1,0,0,0,1-1.73Z"/><path class="cls-7" d="M47.22,39.63l-1.51-.87a1,1,0,0,0-1.36.37,1,1,0,0,0,.36,1.36l1.51.88a1,1,0,1,0,1-1.74Z"/><path class="cls-7" d="M17.74,32a1,1,0,0,0-1-1H15a1,1,0,0,0,0,2h1.74A1,1,0,0,0,17.74,32Z"/><path class="cls-7" d="M49,31H47.26a1,1,0,1,0,0,2H49a1,1,0,0,0,0-2Z"/><path class="cls-7" d="M18.29,38.76l-1.51.87a1,1,0,0,0,1,1.74l1.51-.88a1,1,0,0,0,.36-1.36A1,1,0,0,0,18.29,38.76Z"/><path class="cls-7" d="M45.21,25.37a1,1,0,0,0,.5-.13l1.51-.87a1,1,0,0,0-1-1.74l-1.51.88a1,1,0,0,0,.5,1.86Z"/><path class="cls-7" d="M24.87,44.35a1,1,0,0,0-1.36.36l-.88,1.51a1,1,0,0,0,1.74,1l.87-1.51A1,1,0,0,0,24.87,44.35Z"/><path class="cls-7" d="M39.13,19.65a1,1,0,0,0,.5.14,1,1,0,0,0,.86-.5l.88-1.51a1,1,0,1,0-1.74-1l-.87,1.51A1,1,0,0,0,39.13,19.65Z"/></svg>